<svg width="227" height="227" viewBox="0 0 227 227" fill="none" xmlns="http://www.w3.org/2000/svg">
<rect x="0.664062" y="58.5293" width="81.6126" height="238.036" transform="rotate(-45 0.664062 58.5293)" fill="black"/>
<rect x="168.981" y="0.820312" width="81.6126" height="238.036" transform="rotate(45 168.981 0.820312)" fill="black"/>
<path d="M86.5688 61.625H79.1535L76.6182 69.25H84.0335L86.5688 61.625Z" fill="white"/>
<path d="M106.375 61.625H100.37L99.5693 66.3906L99.0928 69.25H106.375V61.625Z" fill="white"/>
<path d="M96.0238 64.4844L96.5004 61.625H90.591L88.0557 69.25H95.2232L96.0238 64.4844Z" fill="white"/>
<path d="M141.431 61.625L143.966 69.25H151.381L148.846 61.625H141.431Z" fill="white"/>
<path d="M152.868 61.625L155.403 69.25H162.38L158.568 61.625H152.868Z" fill="white"/>
<path d="M167.375 164.562H60.625V168.375H167.375V164.562Z" fill="white"/>
<path d="M65.6191 69.25H72.596L75.1313 61.625H69.4316L65.6191 69.25Z" fill="white"/>
<path d="M117.812 61.625H110.188V69.25H117.812V61.625Z" fill="white"/>
<path d="M127.63 61.625H121.625V69.25H128.907L128.43 66.3906L127.63 61.625Z" fill="white"/>
<path d="M131.499 61.625L131.976 64.4844L132.776 69.25H139.944L137.408 61.625H131.499Z" fill="white"/>
<rect x="65.2012" y="72.5625" width="7.08398" height="8.92139" fill="white"/>
<rect x="76.4678" y="72.5625" width="7.08398" height="8.92139" fill="white"/>
<rect x="87.7334" y="72.5625" width="7.08398" height="8.92139" fill="white"/>
<rect x="98.999" y="72.5625" width="7.08398" height="8.92139" fill="white"/>
<rect x="110.265" y="72.4316" width="7.08398" height="8.92139" fill="white"/>
<rect x="121.53" y="72.4316" width="7.08398" height="8.92139" fill="white"/>
<rect x="132.796" y="72.4316" width="7.08398" height="8.92139" fill="white"/>
<rect x="144.062" y="72.0371" width="7.08398" height="8.92139" fill="white"/>
<rect x="155.328" y="72.0371" width="7.08398" height="8.92139" fill="white"/>
<rect x="66.2354" y="84.5703" width="94.9941" height="76.3403" fill="white"/>
<rect x="77.3652" y="108.092" width="73.2695" height="53.9092" fill="black"/>
<rect x="72.8965" y="87.8438" width="82.2051" height="16.4404" fill="black"/>
<rect x="81" y="111.996" width="30.4902" height="48.2983" fill="white"/>
<rect x="116" y="111.996" width="30.4902" height="48.2983" fill="white"/>
<rect x="103.264" y="133.592" width="5.39844" height="5.39844" fill="black"/>
<rect x="119.203" y="133.592" width="5.39844" height="5.39844" fill="black"/>
<rect x="75.918" y="90.8418" width="75.9043" height="10.1514" fill="white"/>
</svg>
