<svg width="227" height="227" viewBox="0 0 227 227" fill="none" xmlns="http://www.w3.org/2000/svg">
<rect x="0.50293" y="58.5293" width="81.6126" height="238.036" transform="rotate(-45 0.50293 58.5293)" fill="black"/>
<rect x="168.82" y="0.820312" width="81.6126" height="238.036" transform="rotate(45 168.82 0.820312)" fill="black"/>
<path d="M114.276 98.5195L72.1973 108.788L116.289 120.868L156.555 109.19L114.276 98.5195Z" fill="white"/>
<rect x="92.3545" y="67.0059" width="43.3566" height="55.988" fill="white" stroke="black" stroke-width="3"/>
<path d="M77.5088 66.3206L100.124 57.2461L126.47 57.3105L150.039 66.451L145.958 80.8005L113.514 74.9302L81.9029 80.4197L77.5088 66.3206Z" fill="white"/>
<path d="M126.799 55.6848C126.799 60.4721 120.843 64.3531 113.496 64.3531C106.148 64.3531 100.192 60.4721 100.192 55.6848C105.278 55.092 105.22 55.1919 112.567 55.1919C119.914 55.1919 118.858 55.3915 126.799 55.6848Z" fill="black"/>
<path d="M68.7793 107.889L112.845 120.706L113.051 165.933L68.7793 150.535V107.889Z" fill="white"/>
<path d="M112.435 121.881L103.51 136.857L58.1064 122.08L68.6768 108.957L112.435 121.881Z" fill="white" stroke="black" stroke-width="3"/>
<path d="M161.365 107.703L117.299 120.521L117.793 166.042L161.365 150.349V107.703Z" fill="white"/>
<path d="M117.298 121.881L126.223 136.857L171.626 122.08L161.056 108.957L117.298 121.881Z" fill="white" stroke="black" stroke-width="3"/>
<line x1="121.343" y1="77.4223" x2="108.402" y2="90.4227" stroke="black" stroke-width="2"/>
<line x1="121.044" y1="90.4102" x2="108.073" y2="77.4393" stroke="black" stroke-width="2"/>
</svg>
