<svg width="227" height="227" viewBox="0 0 227 227" fill="none" xmlns="http://www.w3.org/2000/svg">
<rect x="0.341797" y="58.5293" width="81.6126" height="238.036" transform="rotate(-45 0.341797 58.5293)" fill="black"/>
<rect x="168.659" y="0.820312" width="81.6126" height="238.036" transform="rotate(45 168.659 0.820312)" fill="black"/>
<rect x="67.8906" y="127.453" width="35.1101" height="37.643" fill="white"/>
<path d="M102.922 133.068H113.679L137.637 138.502V145.747L118.079 145.143" stroke="white" stroke-width="3"/>
<path d="M101.884 158.715L139.281 161.691L167.329 136.733L161.511 129.635L137.411 142.457" stroke="white" stroke-width="3"/>
<path d="M118.228 121.381C115.525 121.381 112.903 121.083 110.362 120.487C107.821 119.832 105.469 118.789 103.307 117.359C101.144 115.87 99.2519 113.903 97.6301 111.461C96.0623 108.958 94.8729 105.86 94.062 102.166H86.8447V94.7482H93.0078C92.9537 94.1524 92.9267 93.5268 92.9267 92.8714C92.9267 92.2161 92.9267 91.5607 92.9267 90.9053C92.9267 90.2499 92.9267 89.5945 92.9267 88.9391C92.9267 88.2241 92.9537 87.5688 93.0078 86.9729H86.8447V79.5551H94.062C94.8729 75.9207 96.0623 72.8821 97.6301 70.4393C99.2519 67.9369 101.144 65.9707 103.307 64.5408C105.469 63.0512 107.821 62.0086 110.362 61.4128C112.903 60.7574 115.525 60.4297 118.228 60.4297C121.093 60.4297 123.958 60.7872 126.823 61.5021C129.689 62.2171 132.5 63.1704 135.257 64.362V75.5334C132.446 74.1035 129.716 73.0906 127.067 72.4948C124.472 71.8394 121.769 71.5117 118.957 71.5117C115.984 71.5117 113.416 72.1373 111.254 73.3885C109.145 74.5801 107.523 76.6357 106.388 79.5551H125.202V86.9729H104.604C104.55 87.5688 104.496 88.2241 104.442 88.9391C104.442 89.5945 104.442 90.2499 104.442 90.9053C104.442 91.5607 104.442 92.2161 104.442 92.8714C104.496 93.5268 104.55 94.1524 104.604 94.7482H125.202V102.166H106.388C107.523 105.145 109.145 107.26 111.254 108.511C113.416 109.703 115.984 110.299 118.957 110.299C121.769 110.299 124.472 110.001 127.067 109.405C129.716 108.75 132.446 107.707 135.257 106.277V117.449C132.5 118.64 129.689 119.593 126.823 120.308C123.958 121.023 121.093 121.381 118.228 121.381Z" fill="white"/>
</svg>
