<?xml version="1.0" encoding="utf-8"?>
<svg viewBox="4205.3462 408.8308 627.0806 612.3923" width="627.081" height="612.392" xmlns="http://www.w3.org/2000/svg">
  <path d="M4649.978 723.796c-83.955 26.713-165.366 52.154-247.414 78.231 0-0.636 0 1.272 0.636 3.18 17.173 46.43 50.882 71.871 99.856 75.051 45.158 3.18 86.499-5.724 115.757-43.886 24.169-32.437 29.893-70.599 31.165-112.576zM4205.396 737.789c26.713 6.36 52.154 13.993 78.231 18.445 50.246 8.268 99.22 0.636 147.558-13.357 58.514-17.173 116.393-37.525 174.271-55.334 47.066-14.629 95.404-25.441 145.014-20.989 26.713 1.908 52.154 8.904 75.687 21.625 2.544 1.272 5.724 5.088 5.724 7.632 3.18 69.963-6.996 136.745-45.158 197.168-32.437 50.882-77.595 87.135-134.837 106.216-85.863 28.621-173.635 29.893-259.498 0.636-106.216-36.889-164.094-115.12-182.539-224.517-1.272-13.357-2.544-26.077-4.452-37.525z" fill="#000"/>
  <path d="M4828.065 660.83c-59.786-31.165-121.481-27.349-184.447-12.084-3.18-8.904-6.36-18.445-10.176-27.349-26.713-58.514-76.959-78.231-133.565-72.507-75.051 7.632-99.856 59.786-107.488 113.212-2.544 17.809-2.544 35.617-3.18 53.426 0 6.36-2.544 9.54-8.904 10.812-53.426 8.268-106.216 5.724-157.734-12.72-12.72-4.452-17.809-10.176-17.173-24.805 3.18-62.33 19.081-119.573 57.242-169.819 42.614-55.97 99.856-89.043 168.547-101.764 77.595-13.993 154.554-12.084 228.333 17.809 97.948 40.070 153.282 114.484 169.183 219.429 0 1.908-0.636 3.816-0.636 6.36z" fill="#000"/>
</svg>