<?xml version="1.0" encoding="utf-8"?>
<svg viewBox="0 0 5845 1024" width="5845" height="1024" xmlns="http://www.w3.org/2000/svg">
  <path d="M3935.722 702.171c-0.636-13.993-0.636-28.621-2.544-42.614-3.816-37.525-19.717-68.691-50.882-90.952-46.43-33.073-134.201-31.801-169.819 47.702-28.621 62.966-29.257 127.841-6.36 192.716 10.176 28.621 29.257 50.246 57.878 62.966 60.422 26.077 125.933-0.636 153.918-62.966 15.901-34.345 17.173-70.599 17.809-106.852v0zM4112.537 146.286c0 5.088-0.636 10.812-0.636 15.901 0 275.399 0 550.161 0 825.56v16.537h-179.995v-79.503c-7.632 9.54-12.72 15.901-17.809 22.261-38.161 46.43-88.407 68.691-148.194 71.871-52.79 2.544-102.4-6.36-146.922-36.889-55.334-38.161-87.135-91.588-100.492-156.462-18.445-90.316-16.537-180.631 22.897-265.858 35.617-76.959 93.496-129.113 178.723-145.014 41.978-7.632 84.591-7.632 125.933 5.724 32.437 10.176 57.878 29.893 76.323 57.878 1.908 3.18 3.816 5.724 7.632 11.448v-343.453h182.539z" style="fill: rgb(255, 255, 255);" transform="matrix(1, 0, 0, 1, -5.684341886080802e-14, 0)"/>
  <path d="M5674.614 732.065c-3.816 0-6.36 0-8.268 0-34.345 4.452-68.691 7.632-103.036 13.993-18.445 3.816-37.525 10.176-52.79 20.353-40.706 27.349-34.981 92.86 8.904 115.757 40.706 20.989 98.584 6.996 129.113-31.165 27.985-35.617 27.985-76.323 26.077-118.937v0zM5842.524 1004.283h-168.547v-82.047c-4.452 5.724-6.996 8.904-8.904 11.448-38.798 56.606-92.224 85.227-161.55 85.227-34.981 0-69.327-3.816-100.492-20.353-53.426-28.621-80.139-75.051-84.591-134.201-3.816-43.25 1.272-85.863 24.805-124.025 27.349-44.522 69.963-69.327 119.573-80.775 40.070-9.54 80.775-13.993 121.481-20.353 29.893-4.452 59.786-8.268 89.043-12.084 3.18-47.066-20.989-83.955-69.963-90.952-60.422-8.904-118.301 3.816-173.635 28.621-18.445 8.268-36.253 19.081-54.698 28.621 0-3.18-0.636-6.36-0.636-8.904 0-38.161 0-76.959 0-115.12 0-7.632 1.908-11.448 9.54-14.629 50.246-21.625 103.672-34.345 157.734-40.706 51.518-6.36 102.4-5.088 152.646 8.904 81.411 22.897 126.569 78.231 143.106 159.642 1.272 7.632 3.18 14.629 5.088 22.261v399.424z" style="fill: rgb(255, 255, 255);" transform="matrix(1, 0, 0, 1, -5.684341886080802e-14, 0)"/>
  <path d="M1457.133 715.528c1.272 15.265 1.272 29.893 3.816 45.158 8.904 64.875 39.434 115.757 120.845 120.209 63.602 3.816 108.76-22.897 127.205-85.227 13.993-48.338 15.265-97.312 5.088-146.286-12.72-62.33-44.522-92.86-106.216-99.856-57.878-6.996-110.032 15.901-134.837 77.595-12.084 28.621-15.265 57.878-15.901 88.407zM1586.882 1020.82c-59.15-1.272-116.393-10.812-169.183-39.434-79.503-43.25-123.389-111.304-138.017-199.712-9.54-59.15-7.632-118.301 10.176-175.543 27.349-88.407 87.135-147.558 174.271-176.179 85.227-28.621 172.999-29.257 258.226 0.636 97.312 34.345 153.918 104.944 174.271 204.8 13.357 65.511 10.176 131.657-12.72 195.26-36.253 100.492-108.76 159.006-212.432 179.995-27.985 5.724-56.606 6.996-84.591 10.176z" style="fill: rgb(255, 255, 255);" transform="matrix(1, 0, 0, 1, -5.684341886080802e-14, 0)"/>
  <path d="M3248.815 730.793c-32.437 4.452-63.602 7.632-94.132 12.72-19.717 3.18-40.070 7.632-58.514 15.901-27.985 12.084-39.434 36.889-37.525 66.783 1.272 28.621 16.537 48.974 43.25 59.15 37.525 14.629 88.407 1.908 115.757-27.985 33.073-36.253 34.345-79.503 31.165-126.569zM3248.815 627.12c3.816-47.702-24.169-84.591-69.327-90.952-68.055-9.54-131.657 6.36-192.080 37.525-12.084 6.36-23.533 13.357-36.253 20.353-0.636-3.816-1.272-6.36-1.272-8.904 0-38.798 0-77.595 0-116.393 0-7.632 2.544-11.448 9.54-14.629 50.246-21.625 103.036-33.709 156.462-40.706 48.974-6.36 98.584-5.724 146.922 6.996 87.771 22.897 135.473 80.775 150.738 168.547 3.816 22.261 5.088 44.522 5.088 66.783 0.636 111.304 0 221.973 0 333.277v14.629h-169.183v-78.231c-0.636 0-1.908-0.636-2.544-0.636-5.724 6.996-10.812 14.629-16.537 21.625-36.889 47.066-85.863 70.599-146.286 71.871-40.070 1.272-78.231-3.816-113.212-24.169-47.066-27.985-70.599-70.599-76.959-124.025-3.816-29.893-1.908-59.786 6.36-88.407 16.537-59.786 57.878-97.312 115.12-115.12 34.345-10.812 71.235-16.537 107.488-22.261 41.342-6.996 83.955-11.448 125.933-17.173z" style="fill: rgb(255, 255, 255);" transform="matrix(1, 0, 0, 1, -5.684341886080802e-14, 0)"/>
  <path d="M2532.015 557.794h-92.86v-133.565h92.86v-24.169c0-30.529 0-60.422 0-90.952 0-6.36 0.636-10.812 8.268-12.72 55.334-15.265 111.304-31.801 166.639-47.066 1.272-0.636 2.544 0 5.724 0v173.635h129.113v134.201h-127.841c-0.636 3.18-1.272 5.724-1.272 7.632 0 80.139 0 160.278 0.636 240.417 0 10.812 2.544 22.261 5.724 32.437 10.176 31.165 39.434 48.974 73.143 43.25 16.537-3.18 33.073-8.268 50.246-13.357 0 1.908 0.636 5.724 0.636 8.904 0 36.889-0.636 73.779 0 110.032 0 9.54-3.18 14.629-11.448 16.537-21.625 5.088-42.614 11.448-64.239 13.357-38.798 3.816-77.595 3.816-115.757-5.724-63.602-17.173-106.216-66.147-114.484-134.837-2.544-22.261-4.452-44.522-4.452-66.783-0.636-78.231 0-157.098 0-235.329v-15.901z" style="fill: rgb(255, 255, 255);" transform="matrix(1, 0, 0, 1, -5.684341886080802e-14, 0)"/>
  <path d="M1965.317 847.185c31.801 12.72 62.966 26.713 94.768 36.889 44.522 13.993 90.316 17.173 136.109 4.452 9.54-2.544 19.081-7.632 27.349-13.357 19.717-14.629 21.625-45.158 1.272-59.15-18.445-12.72-39.434-21.625-60.422-30.529-36.889-15.265-75.687-27.985-111.94-44.522-116.393-53.426-115.12-224.517-9.54-288.119 43.25-26.077 90.952-38.161 140.561-41.978 61.694-4.452 122.753 1.908 182.539 19.081 3.816 1.272 10.176 5.724 10.176 8.904 0.636 43.886 0.636 87.135 0.636 132.293-3.816-1.908-6.996-2.544-9.54-3.816-47.066-24.805-97.312-37.525-150.738-33.709-18.445 1.272-37.525 6.36-53.426 14.629-26.713 13.357-29.893 45.158-6.36 63.602 16.537 12.72 37.525 20.989 57.242 29.257 38.161 15.901 78.231 28.621 115.12 47.066 43.25 20.989 72.507 55.97 80.139 104.308 14.629 92.86-27.349 166.002-115.757 200.984-39.434 15.901-80.775 22.897-122.753 24.805-65.511 3.18-130.385-3.816-192.716-24.169-8.904-2.544-12.084-6.36-12.084-15.901 0-43.886-0.636-88.407-0.636-131.021z" style="fill: rgb(255, 255, 255);" transform="matrix(1, 0, 0, 1, -5.684341886080802e-14, 0)"/>
  <path d="M920.964 557.444h-94.132v-133.565h94.132c0-24.169 0-47.066 0-69.963 0-15.265-0.636-31.165 0.636-46.43 0-3.816 3.816-8.904 6.996-10.176 55.334-16.537 111.304-31.801 166.639-47.702 1.272-0.636 2.544 0 5.088 0v174.271h129.113v133.565h-128.477c0 5.724-0.636 9.54-0.636 13.357 0 75.687 0 151.374 0 226.425 0 9.54 1.272 19.717 3.18 29.257 9.54 44.522 45.158 64.239 92.86 51.518 11.448-3.18 22.261-7.632 34.345-12.084 0 42.614 0 84.591-0.636 127.205 0 3.18-4.452 7.632-7.632 8.904-22.261 5.724-44.522 13.357-67.419 15.265-36.253 3.816-73.143 3.816-109.396-4.452-66.783-15.901-104.944-59.15-118.301-125.297-3.816-19.717-5.724-39.434-5.724-59.786-0.636-84.591 0-169.183 0-253.774v-16.537z" style="fill: rgb(255, 255, 255);" transform="matrix(1, 0, 0, 1, -5.684341886080802e-14, 0)"/>
  <path d="M5107.28 1004.283h-178.723v-579.419h178.087v104.308c0.636 0 1.272 0 1.908 0 5.088-10.176 9.54-20.353 14.629-30.529 36.253-69.963 99.22-92.86 168.547-82.683 11.448 1.908 15.265 6.36 15.265 18.445-0.636 45.158-0.636 90.316-0.636 136.109v13.357c-16.537-4.452-32.437-10.812-48.338-12.72-59.15-8.268-110.032 7.632-136.109 74.415-7.632 20.353-10.812 43.25-13.357 65.511-2.544 17.809-1.272 36.889-1.272 55.334 0 74.415 0 148.83 0 223.245v14.629z" style="fill: rgb(255, 255, 255);" transform="matrix(1, 0, 0, 1, -5.684341886080802e-14, 0)"/>
  <path d="M4649.978 723.796c-83.955 26.713-165.366 52.154-247.414 78.231 0-0.636 0 1.272 0.636 3.18 17.173 46.43 50.882 71.871 99.856 75.051 45.158 3.18 86.499-5.724 115.757-43.886 24.169-32.437 29.893-70.599 31.165-112.576zM4205.396 737.789c26.713 6.36 52.154 13.993 78.231 18.445 50.246 8.268 99.22 0.636 147.558-13.357 58.514-17.173 116.393-37.525 174.271-55.334 47.066-14.629 95.404-25.441 145.014-20.989 26.713 1.908 52.154 8.904 75.687 21.625 2.544 1.272 5.724 5.088 5.724 7.632 3.18 69.963-6.996 136.745-45.158 197.168-32.437 50.882-77.595 87.135-134.837 106.216-85.863 28.621-173.635 29.893-259.498 0.636-106.216-36.889-164.094-115.12-182.539-224.517-1.272-13.357-2.544-26.077-4.452-37.525z" style="fill: rgb(255, 255, 255);" transform="matrix(1, 0, 0, 1, -5.684341886080802e-14, 0)"/>
  <path d="M4828.065 660.83c-59.786-31.165-121.481-27.349-184.447-12.084-3.18-8.904-6.36-18.445-10.176-27.349-26.713-58.514-76.959-78.231-133.565-72.507-75.051 7.632-99.856 59.786-107.488 113.212-2.544 17.809-2.544 35.617-3.18 53.426 0 6.36-2.544 9.54-8.904 10.812-53.426 8.268-106.216 5.724-157.734-12.72-12.72-4.452-17.809-10.176-17.173-24.805 3.18-62.33 19.081-119.573 57.242-169.819 42.614-55.97 99.856-89.043 168.547-101.764 77.595-13.993 154.554-12.084 228.333 17.809 97.948 40.070 153.282 114.484 169.183 219.429 0 1.908-0.636 3.816-0.636 6.36z" style="fill: rgb(255, 255, 255);" transform="matrix(1, 0, 0, 1, -5.684341886080802e-14, 0)"/>
  <path d="M82.683 1015.096h95.404v-878.35h-95.404z" style="fill: rgb(255, 255, 255);" transform="matrix(1, 0, 0, 1, -5.684341886080802e-14, 0)"/>
  <path d="M650.653 717.143c-22.897 2.544-44.522 5.088-65.511 7.632-21.625 2.544-43.25 4.452-64.239 8.268-34.345 5.724-68.691 11.448-101.764 20.353-38.798 10.176-59.15 35.617-65.511 71.235-8.904 53.426 20.353 97.948 78.231 111.304 75.687 17.173 153.918-7.632 196.532-75.687 28.621-44.522 22.261-93.496 22.261-143.106zM651.289 642.093c1.272-36.253-3.816-69.963-25.441-99.856-25.441-35.617-64.875-45.794-109.396-45.158-73.779 0.636-139.289 22.897-197.168 63.602-2.544 1.908-5.724 3.816-10.812 6.996 0-24.805 1.908-47.702-0.636-70.599-1.908-20.353 6.996-29.893 26.713-38.798 85.863-37.525 175.543-49.61 269.675-32.437 81.411 15.265 127.205 62.966 143.742 133.565 5.724 24.169 8.268 49.61 8.268 74.415 0.636 118.301 0.636 237.237 0.636 355.538v14.629h-105.58v-82.683c-0.636-0.636-1.908-0.636-2.544-1.272-3.18 3.816-6.36 8.268-9.54 12.084-53.426 69.963-129.749 94.132-221.973 85.863-42.614-3.816-81.411-15.265-113.848-40.706-34.981-27.349-53.426-62.33-57.242-103.672-3.18-41.342 1.908-81.411 26.713-117.665 29.893-44.522 76.959-68.055 131.021-79.503 43.25-8.904 87.135-13.993 131.021-19.717 38.161-5.088 76.959-9.54 116.393-14.629z" style="fill: rgb(255, 255, 255);" transform="matrix(1, 0, 0, 1, -5.684341886080802e-14, 0)"/>
</svg>